<svg width="246" height="220" viewBox="0 0 246 220" fill="none" xmlns="http://www.w3.org/2000/svg">
<g clip-path="url(#clip0)">
<path d="M121.769 117.994H47.6345C45.6779 117.992 43.8021 117.208 42.4185 115.815C41.035 114.422 40.2568 112.533 40.2545 110.563V71.8322C40.2568 69.862 41.035 67.9732 42.4185 66.5802C43.8021 65.1871 45.6779 64.4035 47.6345 64.4012H121.769C123.726 64.4035 125.602 65.1871 126.985 66.5802C128.369 67.9732 129.147 69.862 129.149 71.8322V110.563C129.147 112.533 128.369 114.422 126.985 115.815C125.602 117.208 123.726 117.992 121.769 117.994Z" fill="#F2F2F2"/>
<path d="M219.387 117.994H145.253C143.296 117.992 141.42 117.208 140.037 115.815C138.653 114.422 137.875 112.533 137.873 110.563V71.8322C137.875 69.862 138.653 67.9732 140.037 66.5802C141.42 65.1871 143.296 64.4035 145.253 64.4012H219.387C221.344 64.4035 223.22 65.1871 224.603 66.5802C225.987 67.9732 226.765 69.862 226.767 71.8322V110.563C226.765 112.533 225.987 114.422 224.603 115.815C223.22 117.208 221.344 117.992 219.387 117.994Z" fill="#F2F2F2"/>
<path d="M129.149 182.395H40.2545V133.081C40.2568 131.111 41.035 129.222 42.4185 127.829C43.8021 126.436 45.6779 125.652 47.6345 125.65H121.769C123.726 125.652 125.602 126.436 126.985 127.829C128.369 129.222 129.147 131.111 129.149 133.081V182.395Z" fill="#F2F2F2"/>
<path d="M226.767 182.395H137.873V133.081C137.875 131.111 138.653 129.222 140.037 127.829C141.42 126.436 143.296 125.652 145.253 125.65H219.387C221.344 125.652 223.22 126.436 224.603 127.829C225.987 129.222 226.765 131.111 226.767 133.081V182.395Z" fill="#F2F2F2"/>
<path d="M219.387 56.7451H145.253C143.296 56.7429 141.42 55.9593 140.037 54.5662C138.653 53.1731 137.875 51.2843 137.873 49.3142V7.43091C137.875 5.46079 138.653 3.572 140.037 2.17892C141.42 0.785838 143.296 0.00222663 145.253 0H219.387C221.344 0.00222663 223.22 0.785838 224.603 2.17892C225.987 3.572 226.765 5.46079 226.767 7.43091V49.3142C226.765 51.2843 225.987 53.1731 224.603 54.5662C223.22 55.9593 221.344 56.7429 219.387 56.7451Z" fill="#F2F2F2"/>
<path d="M121.769 56.7451H47.6345C45.6779 56.7429 43.8021 55.9593 42.4185 54.5662C41.035 53.1731 40.2568 51.2843 40.2545 49.3142V7.43091C40.2568 5.46079 41.035 3.572 42.4185 2.17892C43.8021 0.785838 45.6779 0.00222663 47.6345 0H121.769C123.726 0.00222663 125.602 0.785838 126.985 2.17892C128.369 3.572 129.147 5.46079 129.149 7.43091V49.3142C129.147 51.2843 128.369 53.1731 126.985 54.5662C125.602 55.9593 123.726 56.7429 121.769 56.7451Z" fill="#F2F2F2"/>
<path d="M224.307 184.647H44.5036C43.3767 184.647 42.2959 184.196 41.4991 183.394C40.7022 182.591 40.2545 181.503 40.2545 180.368C40.2545 179.234 40.7022 178.146 41.4991 177.343C42.2959 176.541 43.3767 176.09 44.5036 176.09H224.307C225.434 176.09 226.515 176.541 227.312 177.343C228.109 178.146 228.556 179.234 228.556 180.368C228.556 181.503 228.109 182.591 227.312 183.394C226.515 184.196 225.434 184.647 224.307 184.647Z" fill="#CCCCCC"/>
<path d="M126.578 180.143H53.2255V163.03C53.2255 153.235 57.0896 143.842 63.9677 136.917C70.8459 129.991 80.1746 126.1 89.9018 126.1C99.629 126.1 108.958 129.991 115.836 136.917C122.714 143.842 126.578 153.235 126.578 163.03V180.143Z" fill="#CCCCCC"/>
<path d="M214.244 180.143H140.891V163.03C140.891 153.235 144.755 143.842 151.633 136.917C158.511 129.991 167.84 126.1 177.567 126.1C187.294 126.1 196.623 129.991 203.501 136.917C210.38 143.842 214.244 153.235 214.244 163.03V180.143Z" fill="#CCCCCC"/>
<path d="M174.213 219.55H180.027V181.719H174.213V219.55Z" fill="#CCCCCC"/>
<path d="M157.664 219.344C157.664 219.977 166.475 219.589 177.344 219.589C188.213 219.589 197.024 219.977 197.024 219.344C197.024 218.711 188.213 213.695 177.344 213.695C166.475 213.695 157.664 218.711 157.664 219.344Z" fill="#CCCCCC"/>
<path d="M86.5473 219.55H92.3618V181.719H86.5473V219.55Z" fill="#CCCCCC"/>
<path d="M69.9982 219.344C69.9982 219.977 78.8092 219.589 89.6782 219.589C100.547 219.589 109.358 219.977 109.358 219.344C109.358 218.711 100.547 213.695 89.6782 213.695C78.8092 213.695 69.9982 218.711 69.9982 219.344Z" fill="#CCCCCC"/>
<path d="M115.588 214.392H121.071L123.68 193.096H115.587L115.588 214.392Z" fill="#A0616A"/>
<path d="M131.647 219.519L114.413 219.52L114.413 212.815L124.988 212.815C125.862 212.815 126.728 212.988 127.536 213.325C128.344 213.662 129.078 214.156 129.696 214.778C130.315 215.401 130.805 216.14 131.14 216.953C131.474 217.767 131.647 218.638 131.647 219.519L131.647 219.519Z" fill="#2F2E41"/>
<path d="M124.148 211.311L129.379 209.658L125.536 188.552L117.815 190.992L124.148 211.311Z" fill="#A0616A"/>
<path d="M140.994 211.361L124.551 216.557L122.557 210.16L132.647 206.972C134.332 206.44 136.158 206.603 137.724 207.426C139.289 208.249 140.465 209.665 140.994 211.361Z" fill="#2F2E41"/>
<path d="M120.479 201.509L110.448 174.996C108.198 175.528 89.3249 179.733 83.0039 172.957C80.8376 170.634 80.4151 167.269 81.7481 162.955L85.437 158.287L85.5516 158.294C86.9464 158.367 119.739 160.218 121.987 170.178C123.882 178.575 127.344 194.229 128.359 198.828C128.462 199.304 128.392 199.802 128.161 200.23C127.93 200.659 127.554 200.989 127.101 201.162L123.067 202.685C122.842 202.77 122.604 202.814 122.364 202.814C121.955 202.814 121.557 202.689 121.22 202.456C120.884 202.223 120.625 201.893 120.479 201.509Z" fill="#2F2E41"/>
<path d="M114.665 204.662L104.633 178.149C102.383 178.681 83.5103 182.885 77.1893 176.109C75.023 173.787 74.6006 170.422 75.9335 166.108L79.6224 161.44L79.7371 161.446C81.1319 161.52 113.925 163.371 116.172 173.33C118.068 181.727 121.529 197.382 122.545 201.98C122.648 202.457 122.577 202.954 122.346 203.383C122.115 203.811 121.739 204.142 121.286 204.315L117.252 205.838C117.027 205.923 116.789 205.966 116.549 205.966C116.141 205.966 115.742 205.842 115.406 205.609C115.069 205.376 114.811 205.046 114.665 204.662Z" fill="#2F2E41"/>
<path d="M105.641 153.223C104.155 153.222 102.694 152.833 101.401 152.093C100.109 151.353 99.0293 150.288 98.2684 149.002L95.0827 143.568L102.655 139.401L105.87 143.84L127.685 141.525C127.791 141.332 127.911 141.146 128.042 140.97C128.461 140.415 128.991 139.955 129.598 139.621C130.204 139.286 130.874 139.084 131.564 139.027C132.257 138.967 132.954 139.057 133.609 139.291C134.264 139.525 134.862 139.898 135.362 140.383C136.165 141.158 136.683 142.183 136.834 143.292C136.985 144.401 136.76 145.528 136.194 146.492C135.84 147.092 135.365 147.611 134.798 148.013C134.231 148.415 133.587 148.692 132.906 148.826C132.226 148.96 131.525 148.948 130.85 148.79C130.174 148.632 129.54 148.333 128.987 147.911C128.859 147.812 128.736 147.707 128.619 147.596L107.725 152.96C107.044 153.134 106.344 153.223 105.641 153.223Z" fill="#A0616A"/>
<path d="M75.7917 167.508C75.4898 167.288 75.254 166.99 75.1105 166.644C74.9669 166.298 74.9211 165.919 74.9783 165.549C76.2228 157.288 74.7909 145.454 73.3705 136.982C73.0797 135.263 73.1928 133.499 73.7008 131.832C74.2088 130.164 75.0975 128.64 76.2957 127.381C77.494 126.122 78.9684 125.163 80.601 124.581C82.2335 123.999 83.9788 123.809 85.697 124.029C87.1919 124.227 88.6728 124.521 90.1307 124.909C92.5526 125.523 94.6948 126.948 96.2053 128.951C97.7158 130.954 98.5045 133.414 98.442 135.928C98.2296 144.104 99.8783 154.305 100.597 158.311C100.646 158.586 100.638 158.869 100.574 159.141C100.51 159.413 100.391 159.669 100.224 159.892C100.061 160.114 99.8531 160.298 99.6147 160.434C99.3762 160.569 99.1122 160.654 98.8396 160.68C90.8746 161.499 82.2851 165.41 77.874 167.668C77.5905 167.816 77.2763 167.893 76.9573 167.894C76.5379 167.893 76.1298 167.757 75.7917 167.508Z" fill="#023E73"/>
<path d="M97.2924 146.2C97.0463 146.103 96.8217 145.957 96.6318 145.772C96.4419 145.587 96.2904 145.365 96.1861 145.121L91.744 134.788C91.4751 134.164 91.3309 133.493 91.3198 132.812C91.3088 132.132 91.4309 131.456 91.6794 130.823C91.9279 130.19 92.2978 129.613 92.768 129.124C93.2381 128.635 93.7994 128.245 94.4196 127.974C95.0398 127.704 95.7068 127.559 96.3826 127.549C97.0583 127.538 97.7295 127.662 98.3578 127.913C98.986 128.163 99.5591 128.536 100.044 129.01C100.529 129.484 100.917 130.049 101.185 130.674L105.627 141.006C105.838 141.5 105.847 142.057 105.65 142.557C105.454 143.056 105.069 143.457 104.579 143.671L98.8328 146.176C98.5905 146.282 98.3295 146.339 98.0651 146.344C97.8007 146.348 97.5381 146.299 97.2925 146.2H97.2924Z" fill="#023E73"/>
<path d="M84.8795 120.514C90.9466 120.514 95.865 115.561 95.865 109.452C95.865 103.343 90.9466 98.3911 84.8795 98.3911C78.8124 98.3911 73.894 103.343 73.894 109.452C73.894 115.561 78.8124 120.514 84.8795 120.514Z" fill="#A0616A"/>
<path d="M78.2408 119.279C78.0851 119.46 77.8951 119.608 77.6818 119.714C77.4685 119.819 77.2364 119.881 76.9991 119.894C76.7618 119.908 76.5242 119.874 76.3003 119.793C76.0765 119.713 75.8709 119.588 75.6957 119.427C73.2461 117.43 71.3033 114.875 70.0277 111.974C68.5996 108.546 68.3903 104.363 70.0157 101.15C71.3897 98.4343 73.8562 96.7054 76.3186 95.2924C77.2626 94.6935 78.297 94.2532 79.3814 93.9889C79.9292 93.8637 80.4969 93.8554 81.048 93.9645C81.5991 94.0737 82.1214 94.2978 82.5812 94.6224C83.0692 94.9961 83.4468 95.4965 83.6736 96.0699C83.9004 96.6434 83.9678 97.2682 83.8685 97.8773C84.9948 96.3832 86.5133 95.2358 88.2527 94.5642C89.3199 94.1017 90.5123 94.0213 91.6313 94.3363C93.2126 94.8678 94.3831 96.4757 95.0345 98.2032C95.5612 99.5257 95.7542 100.959 95.596 102.375C95.5271 103.051 95.3222 103.706 94.994 104.3C94.6657 104.894 94.2209 105.415 93.6866 105.83C92.3967 106.726 90.7349 106.635 89.2348 106.239C87.7347 105.842 86.2789 105.169 84.7526 104.982C83.2263 104.794 81.5348 105.201 80.6254 106.572C79.9851 107.537 79.8341 108.809 79.7034 110.021L79.0238 116.325C78.9758 117.227 78.7828 118.115 78.4524 118.955C78.3964 119.072 78.3253 119.181 78.2408 119.279Z" fill="#2F2E41"/>
<path d="M101.724 164.773C101.071 164.543 100.473 164.177 99.9692 163.699C99.4657 163.221 99.0678 162.642 98.8012 161.999C98.7397 161.849 98.6861 161.696 98.6406 161.54L75.2384 154.833C74.2328 154.541 73.3475 153.93 72.7142 153.091C72.0808 152.252 71.733 151.229 71.7224 150.175L71.6652 141.077L80.2913 141.31L80.8534 146.774L100.865 155.821C101.053 155.707 101.249 155.607 101.451 155.521H101.451C102.189 155.21 102.99 155.084 103.786 155.155C104.582 155.225 105.35 155.49 106.022 155.925C106.694 156.361 107.25 156.955 107.643 157.656C108.036 158.356 108.254 159.143 108.278 159.947C108.302 160.752 108.13 161.55 107.779 162.273C107.428 162.996 106.907 163.622 106.262 164.097C105.617 164.572 104.866 164.882 104.076 164.999C103.285 165.117 102.478 165.039 101.724 164.773V164.773Z" fill="#A0616A"/>
<path d="M71.7994 145.071C71.6237 144.872 71.489 144.64 71.403 144.388C71.317 144.136 71.2815 143.87 71.2985 143.604L71.9847 132.367C72.025 131.687 72.1981 131.022 72.494 130.41C72.7898 129.798 73.2027 129.25 73.7089 128.799C74.2151 128.347 74.8048 128.001 75.4441 127.779C76.0834 127.557 76.7599 127.465 77.4349 127.507C78.1098 127.548 78.7699 127.724 79.3774 128.023C79.9849 128.322 80.5279 128.738 80.9754 129.249C81.4228 129.759 81.7659 130.354 81.985 130.998C82.2041 131.642 82.2949 132.323 82.2522 133.003L81.5662 144.24C81.5328 144.777 81.2895 145.277 80.8898 145.633C80.49 145.989 79.9665 146.171 79.4339 146.139L73.1839 145.752C72.9199 145.736 72.6616 145.668 72.4239 145.551C72.1863 145.434 71.974 145.271 71.7994 145.071Z" fill="#023E73"/>
<path d="M132.87 150.645H126.548C126.345 150.645 126.149 150.57 125.999 150.433C125.849 150.295 125.755 150.106 125.736 149.903L124.47 136.842H134.948L133.682 149.903C133.663 150.106 133.57 150.295 133.419 150.432C133.269 150.57 133.073 150.645 132.87 150.645Z" fill="#023E73"/>
<path d="M134.931 138.485H124.487C124.271 138.485 124.063 138.398 123.91 138.244C123.757 138.09 123.671 137.881 123.671 137.664V135.692C123.671 135.474 123.757 135.265 123.91 135.111C124.063 134.957 124.271 134.87 124.487 134.87H134.931C135.148 134.87 135.355 134.957 135.508 135.111C135.661 135.265 135.747 135.474 135.747 135.692V137.664C135.747 137.881 135.661 138.09 135.508 138.244C135.355 138.398 135.148 138.485 134.931 138.485Z" fill="#3F3D56"/>
<path d="M37.8064 138.936H25.0532C24.6774 138.936 24.317 139.086 24.0512 139.353C23.7855 139.621 23.6362 139.984 23.6362 140.362V167.472H25.7617V142.503C25.7617 142.124 25.911 141.761 26.1768 141.494C26.4425 141.226 26.8029 141.076 27.1788 141.076H36.3894C36.7652 141.076 37.1256 141.226 37.3914 141.494C37.6571 141.761 37.8064 142.124 37.8064 142.503V167.472H39.932V140.362C39.932 139.984 39.7827 139.621 39.5169 139.353C39.2512 139.086 38.8908 138.936 38.5149 138.936H37.8064Z" fill="#3F3D56"/>
<path d="M46.3086 219.55H15.8426C14.2459 219.548 12.7151 218.908 11.5861 217.772C10.4571 216.635 9.82202 215.093 9.82024 213.486V168.542C9.82202 166.934 10.4571 165.393 11.5861 164.256C12.7151 163.119 14.2459 162.479 15.8426 162.478H46.3086C47.9052 162.479 49.436 163.119 50.565 164.256C51.6941 165.393 52.3291 166.934 52.3309 168.542V213.486C52.3291 215.093 51.6941 216.635 50.565 217.772C49.436 218.908 47.9052 219.548 46.3086 219.55Z" fill="#3F3D56"/>
<path d="M10.3753 199.879C8.30442 199.879 7.187 195.56 7.187 191.497C7.187 187.433 8.30441 183.114 10.3753 183.114C12.4462 183.114 13.5636 187.433 13.5636 191.497C13.5636 195.56 12.4462 199.879 10.3753 199.879ZM10.3753 183.828C9.20233 183.828 7.8955 186.977 7.8955 191.497C7.8955 196.016 9.20233 199.166 10.3753 199.166C11.5482 199.166 12.8551 196.016 12.8551 191.497C12.8551 186.977 11.5482 183.828 10.3753 183.828Z" fill="#3F3D56"/>
<path d="M44.183 192.797H38.5149C38.0453 192.797 37.5951 192.608 37.263 192.274C36.931 191.94 36.7442 191.486 36.7437 191.014V186.733C36.7442 186.26 36.931 185.807 37.263 185.473C37.5951 185.138 38.0453 184.95 38.5149 184.95H44.183C44.6526 184.95 45.1028 185.138 45.4349 185.473C45.767 185.807 45.9537 186.26 45.9543 186.733V191.014C45.9537 191.486 45.767 191.94 45.4349 192.274C45.1028 192.608 44.6526 192.797 44.183 192.797Z" fill="white"/>
<path d="M45.9543 216.527H13.5636C13.3757 216.527 13.1955 216.452 13.0626 216.319C12.9297 216.185 12.8551 216.003 12.8551 215.814V166.045C12.8551 165.856 12.9297 165.674 13.0626 165.54C13.1955 165.406 13.3757 165.331 13.5636 165.331H45.9543C46.1422 165.331 46.3224 165.406 46.4553 165.54C46.5882 165.674 46.6628 165.856 46.6628 166.045C46.6628 166.234 46.5882 166.415 46.4553 166.549C46.3224 166.683 46.1422 166.758 45.9543 166.758H14.2721V215.101H45.9543C46.1419 215.101 46.3217 215.177 46.4542 215.31C46.5866 215.444 46.661 215.625 46.661 215.814C46.661 216.003 46.5866 216.184 46.4542 216.318C46.3217 216.452 46.1419 216.527 45.9543 216.527Z" fill="white"/>
<path d="M216.807 83.0712C216.39 82.7093 215.907 82.4329 215.385 82.2577C214.218 81.8938 212.991 81.7596 211.774 81.8623C210.88 81.913 209.992 82.0376 209.119 82.2348L168.343 93.8502C167.573 94.068 166.816 94.3217 166.072 94.6115C163.443 93.5757 156.012 90.5796 155.198 89.5046L152.002 90.4456L157.33 98.4538C157.195 98.5131 157.081 98.612 157.003 98.7375C156.925 98.863 156.887 99.0094 156.893 99.1573C156.899 99.3053 156.949 99.448 157.037 99.5667C157.124 99.6855 157.246 99.7748 157.385 99.8229C163.528 101.947 172.805 99.1269 172.805 99.1269L208.434 88.8773C208.434 88.8773 219.188 85.2146 216.807 83.0712Z" fill="white"/>
<path d="M196.602 89.4934L173.445 95.7894L172.077 98.5447L196.602 89.4934Z" fill="#F2F2F2"/>
<path d="M245.553 220H0.447273C0.328649 220 0.21489 219.953 0.13101 219.868C0.0471297 219.784 0 219.669 0 219.55C0 219.43 0.0471297 219.316 0.13101 219.231C0.21489 219.147 0.328649 219.099 0.447273 219.099H245.553C245.671 219.099 245.785 219.147 245.869 219.231C245.953 219.316 246 219.43 246 219.55C246 219.669 245.953 219.784 245.869 219.868C245.785 219.953 245.671 220 245.553 220Z" fill="#CCCCCC"/>
<path d="M196.129 39.4064C195.209 39.4061 194.299 39.5971 193.456 39.9673C192.613 40.3376 191.855 40.8791 191.229 41.558C190.483 41.2593 189.676 41.1492 188.878 41.2372C188.08 41.3253 187.316 41.6088 186.652 42.0631C185.988 42.5173 185.445 43.1284 185.07 43.8429C184.694 44.5574 184.499 45.3535 184.5 46.1617H202.838C202.838 44.3701 202.131 42.6519 200.873 41.385C199.615 40.1181 197.908 39.4064 196.129 39.4064Z" fill="white"/>
<path d="M97.7291 17.3387C96.8092 17.3385 95.8992 17.5295 95.0561 17.8997C94.2129 18.27 93.4547 18.8115 92.829 19.4903C92.0831 19.1917 91.276 19.0816 90.4781 19.1696C89.6802 19.2577 88.9159 19.5412 88.252 19.9954C87.5881 20.4497 87.0448 21.0607 86.6696 21.7752C86.2945 22.4897 86.0989 23.2859 86.1 24.0941H104.438C104.438 22.3025 103.731 20.5842 102.473 19.3174C101.215 18.0505 99.5085 17.3387 97.7291 17.3387Z" fill="white"/>
<path d="M67.3146 76.3357C66.3947 76.3355 65.4847 76.5264 64.6415 76.8967C63.7983 77.2669 63.0402 77.8084 62.4144 78.4873C61.6686 78.1886 60.8614 78.0785 60.0635 78.1666C59.2656 78.2546 58.5013 78.5382 57.8374 78.9924C57.1735 79.4466 56.6302 80.0577 56.2551 80.7722C55.88 81.4867 55.6844 82.2829 55.6855 83.0911H74.0236C74.0236 82.2039 73.8501 81.3255 73.5129 80.5059C73.1758 79.6863 72.6816 78.9416 72.0586 78.3143C71.4356 77.687 70.696 77.1894 69.882 76.8499C69.068 76.5104 68.1956 76.3357 67.3146 76.3357Z" fill="white"/>
</g>
<defs>
<clipPath id="clip0">
<rect width="246" height="220" fill="white"/>
</clipPath>
</defs>
</svg>
