<svg width="246" height="220" viewBox="0 0 246 220" fill="none" xmlns="http://www.w3.org/2000/svg">
<g clip-path="url(#clip0)">
<path d="M213.117 220C231.278 220 246 218.846 246 217.422C246 215.998 231.278 214.844 213.117 214.844C194.957 214.844 180.235 215.998 180.235 217.422C180.235 218.846 194.957 220 213.117 220Z" fill="#E6E6E6"/>
<path d="M225.859 143.621L222.679 152.739C222.438 153.43 222.437 154.185 222.675 154.877C222.914 155.569 223.378 156.154 223.989 156.535C224.434 156.812 224.939 156.969 225.458 156.992C225.977 157.016 226.494 156.905 226.96 156.669C227.427 156.433 227.828 156.08 228.127 155.643C228.426 155.206 228.613 154.699 228.671 154.168L229.68 144.931L237.323 118.963L230.742 115.69L225.859 143.621Z" fill="#A0616A"/>
<path d="M223.205 212.468H227.876V165.77L217.26 165.552L223.205 212.468Z" fill="#A0616A"/>
<path d="M202.399 212.468H207.07V165.77L196.455 165.552L202.399 212.468Z" fill="#A0616A"/>
<path d="M228.619 170.68L216.517 169.371L213.97 155.623L209.299 169.589L194.862 168.061L200.807 144.931C211.673 137.342 221.994 137.507 231.803 144.931L228.619 170.68Z" fill="#2F2E41"/>
<path d="M208.101 214.457C208.173 215.049 208.112 215.651 207.922 216.215C207.732 216.779 207.419 217.291 207.006 217.711C206.593 218.131 206.092 218.448 205.541 218.638C204.99 218.827 204.404 218.884 203.828 218.803L195.224 217.604C194.454 217.481 193.764 217.048 193.304 216.402C192.844 215.756 192.652 214.949 192.771 214.158C192.877 213.444 193.229 212.794 193.762 212.324C194.295 211.854 194.975 211.595 195.677 211.595H197.096L201.763 207.224C201.809 210.201 203.943 209.54 207.468 209.25L208.101 214.457Z" fill="#2F2E41"/>
<path d="M228.907 214.457C228.979 215.049 228.918 215.651 228.728 216.215C228.538 216.779 228.224 217.291 227.812 217.711C227.399 218.131 226.897 218.448 226.346 218.638C225.795 218.827 225.21 218.884 224.634 218.803L216.029 217.604C215.26 217.481 214.57 217.048 214.11 216.402C213.65 215.756 213.458 214.949 213.576 214.158C213.683 213.444 214.035 212.794 214.568 212.324C215.101 211.854 215.78 211.595 216.483 211.595H217.902L222.569 207.224C222.615 210.201 224.748 209.54 228.274 209.25L228.907 214.457Z" fill="#2F2E41"/>
<path d="M212.324 91.2502C216.458 91.2502 219.808 87.8063 219.808 83.5581C219.808 79.3099 216.458 75.8661 212.324 75.8661C208.191 75.8661 204.841 79.3099 204.841 83.5581C204.841 87.8063 208.191 91.2502 212.324 91.2502Z" fill="#A0616A"/>
<path d="M221.825 96.4871L212.484 97.3602V88.8497L217.367 85.7948L221.825 96.4871Z" fill="#A0616A"/>
<path d="M232.865 148.204C223.467 141.131 212.183 141.85 199.746 147.331C205.381 130.935 207.781 115.654 203.355 102.726C203.355 100.442 204.094 98.2234 205.457 96.4193C206.82 94.6152 208.728 93.3287 210.881 92.7626L212.484 92.3412L220.339 92.7776L227.715 97.222C229.22 98.1284 230.468 99.4217 231.339 100.975C232.209 102.528 232.671 104.287 232.679 106.079L232.865 148.204Z" fill="#E6E6E6"/>
<path d="M196.561 141.876L193.381 150.993C193.14 151.684 193.139 152.439 193.378 153.131C193.616 153.823 194.08 154.408 194.691 154.789C195.136 155.066 195.641 155.223 196.16 155.247C196.679 155.27 197.196 155.159 197.663 154.923C198.129 154.687 198.53 154.335 198.829 153.898C199.128 153.46 199.315 152.953 199.373 152.422L200.382 143.185L208.025 117.218L201.444 113.944L196.561 141.876Z" fill="#A0616A"/>
<path d="M239.022 123.982H228.619V97.7965C230.418 98.8239 231.981 100.237 233.202 101.94C234.423 103.643 235.274 105.596 235.696 107.666L239.022 123.982Z" fill="#E6E6E6"/>
<path d="M206.619 79.3932C206.162 79.6152 205.658 79.7167 205.153 79.6887C204.648 79.6606 204.158 79.5038 203.726 79.2324C203.304 78.9458 202.986 78.5247 202.82 78.0338C202.653 77.5429 202.649 77.0094 202.807 76.5156C203.122 75.6817 203.921 75.1595 204.695 74.7515C206.404 73.8521 208.236 73.2233 210.128 72.8863C211.03 72.7258 211.985 72.6376 212.837 72.9803C213.259 73.1499 213.638 73.4185 214.056 73.596C214.826 73.9224 215.685 73.9239 216.5 74.101C217.334 74.2882 218.119 74.6574 218.803 75.1837C219.486 75.7099 220.051 76.3809 220.461 77.1511C220.729 77.6752 220.935 78.2306 221.074 78.8052C221.466 80.3773 221.461 82.0264 221.059 83.5959C220.418 86.0822 218.787 88.3667 218.934 90.9343C217.728 90.2125 217.163 88.7431 216.156 87.7501C215.407 87.0166 214.439 86.5657 213.409 86.4711C213.127 86.4825 212.849 86.4096 212.607 86.2612C212.431 86.0849 212.31 85.8594 212.258 85.6128L211.123 81.9607C210.892 81.2174 210.614 80.4099 209.961 80.0112C209.559 79.8017 209.114 79.6908 208.663 79.6871C207.584 79.6063 206.501 79.6168 205.423 79.7184" fill="#2F2E41"/>
<path d="M209.087 119.181L196.986 114.381L202.481 99.1609C203.121 97.3885 204.245 95.8436 205.718 94.7113C207.191 93.5791 208.95 92.9077 210.785 92.7776L209.087 119.181Z" fill="#E6E6E6"/>
<path d="M143.984 162.941H11.0783C10.4476 162.941 9.84288 162.683 9.39689 162.225C8.95089 161.766 8.70003 161.145 8.69934 160.496V11.5023C8.70003 10.854 8.95089 10.2325 9.39689 9.77409C9.84288 9.31568 10.4476 9.05784 11.0783 9.05713H143.984C144.614 9.05784 145.219 9.31568 145.665 9.77409C146.111 10.2325 146.362 10.854 146.363 11.5023V160.496C146.362 161.145 146.111 161.766 145.665 162.225C145.219 162.683 144.614 162.941 143.984 162.941ZM11.0783 10.0352C10.6999 10.0356 10.3371 10.1903 10.0695 10.4654C9.80186 10.7404 9.65134 11.1134 9.65093 11.5023V160.496C9.65134 160.885 9.80186 161.258 10.0695 161.533C10.3371 161.808 10.6999 161.963 11.0783 161.963H143.984C144.362 161.963 144.725 161.808 144.992 161.533C145.26 161.258 145.411 160.885 145.411 160.496V11.5023C145.411 11.1134 145.26 10.7404 144.992 10.4654C144.725 10.1903 144.362 10.0356 143.984 10.0352H11.0783Z" fill="#E6E6E6"/>
<path d="M38.5038 64.5943C40.2281 64.5943 41.626 63.1576 41.626 61.3852C41.626 59.6129 40.2281 58.1761 38.5038 58.1761C36.7795 58.1761 35.3817 59.6129 35.3817 61.3852C35.3817 63.1576 36.7795 64.5943 38.5038 64.5943Z" fill="#E6E6E6"/>
<path d="M51.5129 64.5943C53.2372 64.5943 54.635 63.1576 54.635 61.3852C54.635 59.6129 53.2372 58.1761 51.5129 58.1761C49.7885 58.1761 48.3907 59.6129 48.3907 61.3852C48.3907 63.1576 49.7885 64.5943 51.5129 64.5943Z" fill="#E6E6E6"/>
<path d="M64.5219 64.5943C66.2462 64.5943 67.6441 63.1576 67.6441 61.3852C67.6441 59.6129 66.2462 58.1761 64.5219 58.1761C62.7976 58.1761 61.3997 59.6129 61.3997 61.3852C61.3997 63.1576 62.7976 64.5943 64.5219 64.5943Z" fill="#023E73"/>
<path d="M77.5309 64.5943C79.2553 64.5943 80.6531 63.1576 80.6531 61.3852C80.6531 59.6129 79.2553 58.1761 77.5309 58.1761C75.8066 58.1761 74.4088 59.6129 74.4088 61.3852C74.4088 63.1576 75.8066 64.5943 77.5309 64.5943Z" fill="#023E73"/>
<path d="M90.54 64.5943C92.2643 64.5943 93.6622 63.1576 93.6622 61.3852C93.6622 59.6129 92.2643 58.1761 90.54 58.1761C88.8157 58.1761 87.4178 59.6129 87.4178 61.3852C87.4178 63.1576 88.8157 64.5943 90.54 64.5943Z" fill="#023E73"/>
<path d="M103.549 64.5943C105.273 64.5943 106.671 63.1576 106.671 61.3852C106.671 59.6129 105.273 58.1761 103.549 58.1761C101.825 58.1761 100.427 59.6129 100.427 61.3852C100.427 63.1576 101.825 64.5943 103.549 64.5943Z" fill="#E6E6E6"/>
<path d="M116.558 64.5943C118.282 64.5943 119.68 63.1576 119.68 61.3852C119.68 59.6129 118.282 58.1761 116.558 58.1761C114.834 58.1761 113.436 59.6129 113.436 61.3852C113.436 63.1576 114.834 64.5943 116.558 64.5943Z" fill="#E6E6E6"/>
<path d="M38.5038 74.7564C40.2281 74.7564 41.626 73.3197 41.626 71.5473C41.626 69.775 40.2281 68.3383 38.5038 68.3383C36.7795 68.3383 35.3817 69.775 35.3817 71.5473C35.3817 73.3197 36.7795 74.7564 38.5038 74.7564Z" fill="#E6E6E6"/>
<path d="M51.5129 74.7564C53.2372 74.7564 54.635 73.3197 54.635 71.5473C54.635 69.775 53.2372 68.3383 51.5129 68.3383C49.7885 68.3383 48.3907 69.775 48.3907 71.5473C48.3907 73.3197 49.7885 74.7564 51.5129 74.7564Z" fill="#E6E6E6"/>
<path d="M64.5219 74.7564C66.2462 74.7564 67.6441 73.3197 67.6441 71.5473C67.6441 69.775 66.2462 68.3383 64.5219 68.3383C62.7976 68.3383 61.3997 69.775 61.3997 71.5473C61.3997 73.3197 62.7976 74.7564 64.5219 74.7564Z" fill="#E6E6E6"/>
<path d="M77.5309 74.7564C79.2553 74.7564 80.6531 73.3197 80.6531 71.5473C80.6531 69.775 79.2553 68.3383 77.5309 68.3383C75.8066 68.3383 74.4088 69.775 74.4088 71.5473C74.4088 73.3197 75.8066 74.7564 77.5309 74.7564Z" fill="#E6E6E6"/>
<path d="M90.54 74.7564C92.2643 74.7564 93.6622 73.3197 93.6622 71.5473C93.6622 69.775 92.2643 68.3383 90.54 68.3383C88.8157 68.3383 87.4178 69.775 87.4178 71.5473C87.4178 73.3197 88.8157 74.7564 90.54 74.7564Z" fill="#E6E6E6"/>
<path d="M103.549 74.7564C105.273 74.7564 106.671 73.3197 106.671 71.5473C106.671 69.775 105.273 68.3383 103.549 68.3383C101.825 68.3383 100.427 69.775 100.427 71.5473C100.427 73.3197 101.825 74.7564 103.549 74.7564Z" fill="#E6E6E6"/>
<path d="M116.558 74.7564C118.282 74.7564 119.68 73.3197 119.68 71.5473C119.68 69.775 118.282 68.3383 116.558 68.3383C114.834 68.3383 113.436 69.775 113.436 71.5473C113.436 73.3197 114.834 74.7564 116.558 74.7564Z" fill="#E6E6E6"/>
<path d="M38.5038 84.9186C40.2281 84.9186 41.626 83.4819 41.626 81.7096C41.626 79.9372 40.2281 78.5005 38.5038 78.5005C36.7795 78.5005 35.3817 79.9372 35.3817 81.7096C35.3817 83.4819 36.7795 84.9186 38.5038 84.9186Z" fill="#023E73"/>
<path d="M51.5129 84.9186C53.2372 84.9186 54.635 83.4819 54.635 81.7096C54.635 79.9372 53.2372 78.5005 51.5129 78.5005C49.7885 78.5005 48.3907 79.9372 48.3907 81.7096C48.3907 83.4819 49.7885 84.9186 51.5129 84.9186Z" fill="#023E73"/>
<path d="M64.5219 84.9186C66.2462 84.9186 67.6441 83.4819 67.6441 81.7096C67.6441 79.9372 66.2462 78.5005 64.5219 78.5005C62.7976 78.5005 61.3997 79.9372 61.3997 81.7096C61.3997 83.4819 62.7976 84.9186 64.5219 84.9186Z" fill="#023E73"/>
<path d="M77.5309 84.9186C79.2553 84.9186 80.6531 83.4819 80.6531 81.7096C80.6531 79.9372 79.2553 78.5005 77.5309 78.5005C75.8066 78.5005 74.4088 79.9372 74.4088 81.7096C74.4088 83.4819 75.8066 84.9186 77.5309 84.9186Z" fill="#E6E6E6"/>
<path d="M90.54 84.9186C92.2643 84.9186 93.6622 83.4819 93.6622 81.7096C93.6622 79.9372 92.2643 78.5005 90.54 78.5005C88.8157 78.5005 87.4178 79.9372 87.4178 81.7096C87.4178 83.4819 88.8157 84.9186 90.54 84.9186Z" fill="#E6E6E6"/>
<path d="M103.549 84.9186C105.273 84.9186 106.671 83.4819 106.671 81.7096C106.671 79.9372 105.273 78.5005 103.549 78.5005C101.825 78.5005 100.427 79.9372 100.427 81.7096C100.427 83.4819 101.825 84.9186 103.549 84.9186Z" fill="#E6E6E6"/>
<path d="M116.558 84.9186C118.282 84.9186 119.68 83.4819 119.68 81.7096C119.68 79.9372 118.282 78.5005 116.558 78.5005C114.834 78.5005 113.436 79.9372 113.436 81.7096C113.436 83.4819 114.834 84.9186 116.558 84.9186Z" fill="#E6E6E6"/>
<path d="M38.5038 95.0806C40.2281 95.0806 41.626 93.6439 41.626 91.8716C41.626 90.0992 40.2281 88.6625 38.5038 88.6625C36.7795 88.6625 35.3817 90.0992 35.3817 91.8716C35.3817 93.6439 36.7795 95.0806 38.5038 95.0806Z" fill="#E6E6E6"/>
<path d="M51.5129 95.0806C53.2372 95.0806 54.635 93.6439 54.635 91.8716C54.635 90.0992 53.2372 88.6625 51.5129 88.6625C49.7885 88.6625 48.3907 90.0992 48.3907 91.8716C48.3907 93.6439 49.7885 95.0806 51.5129 95.0806Z" fill="#E6E6E6"/>
<path d="M38.5038 105.243C40.2281 105.243 41.626 103.806 41.626 102.034C41.626 100.261 40.2281 98.8246 38.5038 98.8246C36.7795 98.8246 35.3817 100.261 35.3817 102.034C35.3817 103.806 36.7795 105.243 38.5038 105.243Z" fill="#E6E6E6"/>
<path d="M51.5129 105.243C53.2372 105.243 54.635 103.806 54.635 102.034C54.635 100.261 53.2372 98.8246 51.5129 98.8246C49.7885 98.8246 48.3907 100.261 48.3907 102.034C48.3907 103.806 49.7885 105.243 51.5129 105.243Z" fill="#E6E6E6"/>
<path d="M64.5219 105.243C66.2462 105.243 67.6441 103.806 67.6441 102.034C67.6441 100.261 66.2462 98.8246 64.5219 98.8246C62.7976 98.8246 61.3997 100.261 61.3997 102.034C61.3997 103.806 62.7976 105.243 64.5219 105.243Z" fill="#E6E6E6"/>
<path d="M64.5219 95.0806C66.2462 95.0806 67.6441 93.6439 67.6441 91.8716C67.6441 90.0992 66.2462 88.6625 64.5219 88.6625C62.7976 88.6625 61.3997 90.0992 61.3997 91.8716C61.3997 93.6439 62.7976 95.0806 64.5219 95.0806Z" fill="#E6E6E6"/>
<path d="M77.5309 95.0806C79.2553 95.0806 80.6531 93.6439 80.6531 91.8716C80.6531 90.0992 79.2553 88.6625 77.5309 88.6625C75.8066 88.6625 74.4088 90.0992 74.4088 91.8716C74.4088 93.6439 75.8066 95.0806 77.5309 95.0806Z" fill="#023E73"/>
<path d="M90.54 95.0806C92.2643 95.0806 93.6622 93.6439 93.6622 91.8716C93.6622 90.0992 92.2643 88.6625 90.54 88.6625C88.8157 88.6625 87.4178 90.0992 87.4178 91.8716C87.4178 93.6439 88.8157 95.0806 90.54 95.0806Z" fill="#023E73"/>
<path d="M103.549 95.0806C105.273 95.0806 106.671 93.6439 106.671 91.8716C106.671 90.0992 105.273 88.6625 103.549 88.6625C101.825 88.6625 100.427 90.0992 100.427 91.8716C100.427 93.6439 101.825 95.0806 103.549 95.0806Z" fill="#023E73"/>
<path d="M116.558 95.0806C118.282 95.0806 119.68 93.6439 119.68 91.8716C119.68 90.0992 118.282 88.6625 116.558 88.6625C114.834 88.6625 113.436 90.0992 113.436 91.8716C113.436 93.6439 114.834 95.0806 116.558 95.0806Z" fill="#E6E6E6"/>
<path d="M53.8962 33.0196C53.4014 33.0279 52.9296 33.2358 52.5825 33.5985C52.2354 33.9611 52.041 34.4494 52.041 34.9581C52.041 35.4668 52.2354 35.9551 52.5825 36.3177C52.9296 36.6804 53.4014 36.8883 53.8962 36.8967H101.186C101.434 36.9011 101.68 36.8553 101.91 36.7619C102.141 36.6685 102.352 36.5293 102.53 36.3522C102.708 36.1751 102.85 35.9636 102.949 35.7299C103.048 35.4962 103.101 35.2447 103.105 34.99C103.109 34.7352 103.064 34.4821 102.973 34.2452C102.882 34.0083 102.746 33.7921 102.574 33.6091C102.401 33.4261 102.195 33.2799 101.968 33.1787C101.74 33.0775 101.495 33.0235 101.248 33.0196C101.227 33.0192 101.206 33.0192 101.186 33.0196H53.8962Z" fill="#3F3D56"/>
<path d="M111.91 32.4796C111.875 32.5151 111.848 32.5571 111.829 32.6034C111.811 32.6497 111.801 32.6993 111.801 32.7494C111.801 32.7995 111.811 32.8491 111.829 32.8954C111.848 32.9417 111.875 32.9837 111.91 33.0191L113.503 34.6567H109.574C109.476 34.6567 109.381 34.6969 109.312 34.7684C109.242 34.84 109.203 34.937 109.203 35.0382C109.203 35.1394 109.242 35.2364 109.312 35.3079C109.381 35.3795 109.476 35.4197 109.574 35.4197H113.503L111.91 37.0572C111.875 37.0927 111.848 37.1347 111.829 37.181C111.811 37.2273 111.801 37.2769 111.801 37.327C111.801 37.3771 111.811 37.4267 111.829 37.473C111.848 37.5192 111.875 37.5613 111.91 37.5967C111.944 37.6321 111.985 37.6602 112.03 37.6794C112.075 37.6986 112.123 37.7085 112.172 37.7085C112.221 37.7085 112.269 37.6986 112.314 37.6794C112.359 37.6602 112.4 37.6321 112.435 37.5967L114.661 35.3079C114.731 35.2364 114.77 35.1394 114.77 35.0382C114.77 34.937 114.731 34.84 114.661 34.7684L112.435 32.4796C112.4 32.4442 112.359 32.4161 112.314 32.397C112.269 32.3778 112.221 32.3679 112.172 32.3679C112.123 32.3679 112.075 32.3778 112.03 32.397C111.985 32.4161 111.944 32.4442 111.91 32.4796Z" fill="#E6E6E6"/>
<path d="M43.1521 32.4798C43.1866 32.5152 43.2139 32.5573 43.2326 32.6035C43.2512 32.6498 43.2608 32.6994 43.2608 32.7495C43.2608 32.7996 43.2512 32.8492 43.2326 32.8955C43.2139 32.9418 43.1866 32.9838 43.1521 33.0193L41.5589 34.6569H45.4876C45.5861 34.6569 45.6805 34.697 45.7501 34.7686C45.8197 34.8401 45.8588 34.9372 45.8588 35.0383C45.8588 35.1395 45.8197 35.2365 45.7501 35.3081C45.6805 35.3796 45.5861 35.4198 45.4876 35.4198H41.5589L43.1521 37.0574C43.2217 37.1289 43.2608 37.226 43.2608 37.3271C43.2608 37.4283 43.2217 37.5253 43.1521 37.5969C43.0825 37.6684 42.9881 37.7086 42.8897 37.7086C42.7913 37.7086 42.6969 37.6684 42.6273 37.5969L40.4005 35.3081C40.3309 35.2365 40.2917 35.1395 40.2917 35.0383C40.2917 34.9372 40.3309 34.8401 40.4005 34.7686L42.6273 32.4798C42.6617 32.4444 42.7026 32.4163 42.7477 32.3971C42.7927 32.3779 42.841 32.368 42.8897 32.368C42.9384 32.368 42.9867 32.3779 43.0317 32.3971C43.0768 32.4163 43.1177 32.4444 43.1521 32.4798Z" fill="#E6E6E6"/>
<path d="M51.2527 125.725C50.3639 125.724 49.4838 125.903 48.6625 126.253C47.8412 126.602 47.095 127.114 46.4663 127.759C45.8377 128.405 45.339 129.172 44.9987 130.016C44.6585 130.86 44.4833 131.764 44.4833 132.678C44.4833 133.591 44.6585 134.496 44.9987 135.34C45.339 136.183 45.8377 136.95 46.4663 137.596C47.095 138.242 47.8412 138.754 48.6625 139.103C49.4838 139.452 50.3639 139.631 51.2527 139.631H103.809C104.698 139.631 105.578 139.452 106.399 139.103C107.221 138.754 107.967 138.242 108.596 137.596C109.224 136.95 109.723 136.183 110.063 135.34C110.403 134.496 110.579 133.591 110.579 132.678C110.579 131.764 110.403 130.86 110.063 130.016C109.723 129.172 109.224 128.405 108.596 127.759C107.967 127.114 107.221 126.602 106.399 126.253C105.578 125.903 104.698 125.724 103.809 125.725H51.2527Z" fill="#E6E6E6"/>
<path d="M10.8711 22.3475C8.72101 22.3475 6.61919 21.6921 4.83144 20.4643C3.0437 19.2366 1.65033 17.4915 0.827519 15.4497C0.00471049 13.408 -0.210574 11.1613 0.20889 8.99384C0.628354 6.82635 1.66373 4.83539 3.18408 3.27271C4.70443 1.71004 6.64147 0.645846 8.75026 0.214706C10.859 -0.216435 13.0449 0.00483975 15.0313 0.850553C17.0177 1.69627 18.7156 3.12843 19.9101 4.96594C21.1046 6.80345 21.7422 8.96378 21.7422 11.1737C21.739 14.1362 20.5926 16.9763 18.5545 19.0711C16.5165 21.1658 13.7533 22.3441 10.8711 22.3475Z" fill="#023E73"/>
<path d="M15.1605 10.0715H11.9435V6.76483C11.9435 6.4725 11.8305 6.19214 11.6294 5.98544C11.4282 5.77873 11.1555 5.6626 10.8711 5.6626C10.5867 5.6626 10.3139 5.77873 10.1128 5.98544C9.91167 6.19214 9.79869 6.4725 9.79869 6.76483V10.0715H6.58158C6.29717 10.0715 6.02441 10.1876 5.82331 10.3943C5.6222 10.601 5.50922 10.8814 5.50922 11.1737C5.50922 11.466 5.6222 11.7464 5.82331 11.9531C6.02441 12.1598 6.29717 12.2759 6.58158 12.2759H9.79869V15.5826C9.79869 15.8749 9.91167 16.1553 10.1128 16.362C10.3139 16.5687 10.5867 16.6848 10.8711 16.6848C11.1555 16.6848 11.4282 16.5687 11.6294 16.362C11.8305 16.1553 11.9435 15.8749 11.9435 15.5826V12.2759H15.1605C15.4449 12.2759 15.7177 12.1598 15.9188 11.9531C16.1199 11.7464 16.2329 11.466 16.2329 11.1737C16.2329 10.8814 16.1199 10.601 15.9188 10.3943C15.7177 10.1876 15.4449 10.0715 15.1605 10.0715Z" fill="white"/>
</g>
<defs>
<clipPath id="clip0">
<rect width="246" height="220" fill="white"/>
</clipPath>
</defs>
</svg>
