<svg width="246" height="220" viewBox="0 0 246 220" fill="none" xmlns="http://www.w3.org/2000/svg">
<g clip-path="url(#clip0)">
<path d="M18.2368 203.243C14.9075 201.968 13.4867 208.98 16.8076 210.296C20.1368 211.571 21.5575 204.56 18.2368 203.243Z" fill="#3F3D56"/>
<path d="M36.6961 212.268C33.3668 210.992 31.946 218.004 35.267 219.32C38.5961 220.595 40.0169 213.584 36.6961 212.268Z" fill="#3F3D56"/>
<path d="M44.1669 138.318L44.1154 138.298L35.5399 170.586L34.4093 170.146L43.0463 137.626C43.065 137.125 43.2067 136.647 43.448 136.273C43.6892 135.899 44.0155 135.651 44.3726 135.569C48.6612 134.629 50.3996 139.909 50.3996 139.909L50.3824 139.944L41.615 172.954L40.4844 172.514L48.9938 140.474C46.4032 136.921 44.1669 138.318 44.1669 138.318Z" fill="#3F3D56"/>
<path d="M34.2545 214.083C29.1997 213.976 22.9489 210.188 18.687 207.349C17.558 206.598 16.6564 205.319 16.1413 203.736C15.6262 202.154 15.5306 200.37 15.8715 198.699L21.395 171.446C21.6415 170.238 22.0625 169.112 22.6325 168.137C23.2024 167.162 23.9094 166.358 24.7104 165.773C25.4876 165.2 26.3418 164.856 27.2194 164.762C28.0971 164.668 28.9793 164.826 29.8108 165.227C30.008 165.35 35.374 167.433 38.9249 168.811C41.0138 169.622 42.5231 170.208 42.6242 170.255C42.7078 170.293 46.4618 172.082 45.7956 178.372C45.2839 183.203 41.4222 201.003 39.7856 208.433C39.4299 210.056 38.7098 211.48 37.73 212.497C36.7503 213.513 35.562 214.069 34.3385 214.084C34.3107 214.084 34.2824 214.084 34.2545 214.083Z" fill="#023E73"/>
<path d="M18.5644 202.853L25.7254 169.239L42.565 175.838L42.6656 175.345L25.4742 168.607L25.4224 168.85L18.2096 202.708L18.5644 202.853Z" fill="#3F3D56"/>
<path d="M246 5.6084H98.494V102.679H246V5.6084Z" fill="#E5E5E5"/>
<path d="M241.957 13.9324H102.887V94.9216H241.957V13.9324Z" fill="white"/>
<path d="M245.937 0H98.4311V8.69063H245.937V0Z" fill="#023E73"/>
<path d="M103.088 5.93994C103.729 5.93994 104.249 5.21877 104.249 4.32916C104.249 3.43955 103.729 2.71838 103.088 2.71838C102.446 2.71838 101.926 3.43955 101.926 4.32916C101.926 5.21877 102.446 5.93994 103.088 5.93994Z" fill="white"/>
<path d="M107.496 5.93994C108.138 5.93994 108.658 5.21877 108.658 4.32916C108.658 3.43955 108.138 2.71838 107.496 2.71838C106.855 2.71838 106.335 3.43955 106.335 4.32916C106.335 5.21877 106.855 5.93994 107.496 5.93994Z" fill="white"/>
<path d="M111.905 5.93994C112.547 5.93994 113.067 5.21877 113.067 4.32916C113.067 3.43955 112.547 2.71838 111.905 2.71838C111.264 2.71838 110.744 3.43955 110.744 4.32916C110.744 5.21877 111.264 5.93994 111.905 5.93994Z" fill="white"/>
<path d="M168.534 53.3031C168.537 56.9673 168.066 60.6026 167.143 64.0358C166.724 65.6084 166.209 67.129 165.606 68.5815C163.664 73.2791 160.863 77.1826 157.485 79.8973C154.107 82.612 150.272 84.0416 146.368 84.0416C142.464 84.0416 138.629 82.612 135.251 79.8973C131.874 77.1826 129.072 73.2791 127.131 68.5815C126.935 68.1091 126.748 67.6296 126.572 67.143C125.065 62.9979 124.255 58.4335 124.202 53.7921C124.149 49.1507 124.854 44.5529 126.265 40.3436C127.676 36.1344 129.757 32.4229 132.35 29.4877C134.943 26.5524 137.981 24.4697 141.238 23.3957C144.494 22.3217 147.883 22.2843 151.152 23.2863C154.42 24.2884 157.482 26.3038 160.108 29.1814C162.735 32.0591 164.857 35.7242 166.316 39.9018C167.776 44.0795 168.534 48.6611 168.534 53.3031Z" fill="#F1F1F1"/>
<path d="M147.521 58.4928C149.861 58.4928 151.758 55.8616 151.758 52.6159C151.758 49.3702 149.861 46.739 147.521 46.739C145.18 46.739 143.283 49.3702 143.283 52.6159C143.283 55.8616 145.18 58.4928 147.521 58.4928Z" fill="#023E73"/>
<path d="M126.572 67.143C128.439 64.3447 130.935 59.902 133.276 63.1122C134.451 64.6264 136.29 68.3786 138.05 65.9256L151.794 46.8647C152.052 46.5104 152.36 46.2314 152.697 46.0441C153.035 45.8568 153.396 45.765 153.76 45.774C154.123 45.7831 154.482 45.8928 154.814 46.0967C155.147 46.3007 155.447 46.5947 155.696 46.9616L167.143 64.0358C166.724 65.6084 166.209 67.129 165.606 68.5815H127.131L126.572 67.143Z" fill="white"/>
<path d="M213.797 47.2805C213.645 47.2805 213.5 47.3642 213.392 47.5131C213.285 47.6621 213.225 47.8641 213.225 48.0747C213.225 48.2853 213.285 48.4873 213.392 48.6362C213.5 48.7852 213.645 48.8688 213.797 48.8688H219.806C219.958 48.8688 220.104 48.7852 220.211 48.6362C220.319 48.4873 220.379 48.2853 220.379 48.0747C220.379 47.8641 220.319 47.6621 220.211 47.5131C220.104 47.3642 219.958 47.2805 219.806 47.2805H213.797Z" fill="#023E73"/>
<path d="M186.725 35.6162C186.65 35.616 186.575 35.6364 186.506 35.6762C186.436 35.716 186.373 35.7744 186.319 35.8482C186.266 35.922 186.224 36.0096 186.195 36.1061C186.166 36.2025 186.151 36.3059 186.151 36.4104C186.151 36.5148 186.166 36.6182 186.195 36.7147C186.224 36.8111 186.266 36.8988 186.319 36.9725C186.373 37.0463 186.436 37.1047 186.506 37.1446C186.575 37.1844 186.65 37.2047 186.725 37.2045H220.069C220.221 37.2041 220.366 37.1202 220.473 36.9713C220.58 36.8224 220.64 36.6207 220.64 36.4104C220.64 36.2 220.58 35.9983 220.473 35.8494C220.366 35.7005 220.221 35.6167 220.069 35.6162H186.725Z" fill="#E5E5E5"/>
<path d="M186.725 41.4484C186.65 41.4481 186.575 41.4685 186.506 41.5083C186.436 41.5481 186.373 41.6066 186.319 41.6804C186.266 41.7541 186.224 41.8418 186.195 41.9382C186.166 42.0347 186.151 42.1381 186.151 42.2425C186.151 42.347 186.166 42.4504 186.195 42.5468C186.224 42.6433 186.266 42.7309 186.319 42.8047C186.373 42.8784 186.436 42.9369 186.506 42.9767C186.575 43.0165 186.65 43.0369 186.725 43.0367H220.069C220.221 43.0362 220.366 42.9524 220.473 42.8035C220.58 42.6546 220.64 42.4528 220.64 42.2425C220.64 42.0322 220.58 41.8305 220.473 41.6816C220.366 41.5327 220.221 41.4488 220.069 41.4484H186.725Z" fill="#E5E5E5"/>
<path d="M213.797 84.7041C213.646 84.7046 213.5 84.7884 213.393 84.9373C213.286 85.0862 213.226 85.2879 213.226 85.4983C213.226 85.7086 213.286 85.9103 213.393 86.0592C213.5 86.2081 213.646 86.292 213.797 86.2924H219.806C219.882 86.2926 219.956 86.2723 220.026 86.2324C220.095 86.1926 220.159 86.1342 220.212 86.0604C220.265 85.9866 220.308 85.899 220.336 85.8026C220.365 85.7061 220.38 85.6027 220.38 85.4983C220.38 85.3938 220.365 85.2904 220.336 85.1939C220.308 85.0975 220.265 85.0099 220.212 84.9361C220.159 84.8623 220.095 84.8039 220.026 84.7641C219.956 84.7242 219.882 84.7039 219.806 84.7041H213.797Z" fill="#023E73"/>
<path d="M186.725 73.0397C186.573 73.0397 186.427 73.1233 186.32 73.2723C186.213 73.4212 186.152 73.6232 186.152 73.8338C186.152 74.0444 186.213 74.2465 186.32 74.3954C186.427 74.5443 186.573 74.628 186.725 74.628H220.069C220.221 74.628 220.367 74.5443 220.474 74.3954C220.581 74.2465 220.642 74.0444 220.642 73.8338C220.642 73.6232 220.581 73.4212 220.474 73.2723C220.367 73.1233 220.221 73.0397 220.069 73.0397H186.725Z" fill="#E5E5E5"/>
<path d="M186.725 78.8718C186.65 78.8716 186.575 78.892 186.506 78.9318C186.436 78.9716 186.373 79.0301 186.319 79.1038C186.266 79.1776 186.224 79.2652 186.195 79.3617C186.166 79.4581 186.151 79.5615 186.151 79.666C186.151 79.7704 186.166 79.8738 186.195 79.9703C186.224 80.0667 186.266 80.1544 186.319 80.2281C186.373 80.3019 186.436 80.3604 186.506 80.4002C186.575 80.44 186.65 80.4604 186.725 80.4601H220.069C220.221 80.4601 220.367 80.3765 220.474 80.2275C220.581 80.0786 220.642 79.8766 220.642 79.666C220.642 79.4554 220.581 79.2534 220.474 79.1044C220.367 78.9555 220.221 78.8718 220.069 78.8718H186.725Z" fill="#E5E5E5"/>
<path d="M206.741 26.7181H204.935L203.385 23.6378H202.729L203.508 26.7181H201.741L201.016 25.7126H200.403L200.709 27.5729L200.403 29.1992H201.016L201.741 28.1936L201.753 28.167H203.528L202.729 31.3285H203.385L204.941 28.2355L204.96 28.167H206.741C206.879 28.167 207.012 28.0907 207.11 27.9548C207.208 27.819 207.263 27.6347 207.263 27.4426C207.263 27.2505 207.208 27.0662 207.11 26.9303C207.012 26.7945 206.879 26.7181 206.741 26.7181L206.741 26.7181Z" fill="#E5E5E5"/>
<path d="M205.21 66.9105H202.357C202.101 66.9101 201.857 66.7692 201.676 66.5186C201.495 66.268 201.394 65.9283 201.393 65.574V61.9744C201.392 61.735 201.448 61.5019 201.553 61.3112C201.657 61.1205 201.804 60.9829 201.97 60.9198C203.156 60.484 204.404 60.4853 205.59 60.9233C205.758 60.985 205.906 61.1224 206.012 61.3138C206.118 61.5053 206.175 61.74 206.174 61.9812V65.574C206.174 65.9283 206.072 66.268 205.891 66.5186C205.711 66.7692 205.466 66.9101 205.21 66.9105Z" fill="#E5E5E5"/>
<path d="M205.626 62.1052H201.941V64.0213H205.626V62.1052Z" fill="white"/>
<path d="M202.402 65.9374C202.656 65.9374 202.863 65.6515 202.863 65.2987C202.863 64.946 202.656 64.66 202.402 64.66C202.148 64.66 201.941 64.946 201.941 65.2987C201.941 65.6515 202.148 65.9374 202.402 65.9374Z" fill="white"/>
<path d="M205.165 65.9374C205.42 65.9374 205.626 65.6515 205.626 65.2987C205.626 64.946 205.42 64.66 205.165 64.66C204.911 64.66 204.705 64.946 204.705 65.2987C204.705 65.6515 204.911 65.9374 205.165 65.9374Z" fill="white"/>
<path d="M205.982 68.733H201.536L202.587 67.5179H204.931L205.982 68.733ZM202.227 68.3858H205.291L204.84 67.8651H202.678L202.227 68.3858Z" fill="#E5E5E5"/>
<path d="M206.212 67.1535H201.306C201.236 67.1535 201.169 67.1151 201.12 67.0467C201.071 66.9783 201.043 66.8856 201.043 66.7889C201.043 66.6923 201.071 66.5996 201.12 66.5312C201.169 66.4628 201.236 66.4244 201.306 66.4244H206.212C206.282 66.4244 206.349 66.4628 206.398 66.5312C206.447 66.5996 206.475 66.6923 206.475 66.7889C206.475 66.8856 206.447 66.9783 206.398 67.0467C206.349 67.1151 206.282 67.1535 206.212 67.1535Z" fill="#E5E5E5"/>
<path d="M48.3676 141.047C48.5223 140.61 48.606 140.131 48.6129 139.644C48.6198 139.158 48.5496 138.675 48.4073 138.23C48.2651 137.785 48.0542 137.388 47.7895 137.068C47.5249 136.749 47.2129 136.513 46.8755 136.379L46.4139 124.563L42.8498 128.221L43.8346 138.881C43.7092 139.682 43.8001 140.518 44.09 141.233C44.3799 141.947 44.8486 142.489 45.4073 142.756C45.9661 143.023 46.576 142.996 47.1216 142.681C47.6672 142.366 48.1105 141.785 48.3676 141.047Z" fill="#FFB7B7"/>
<path d="M75.9787 143.245C75.7773 142.847 75.6413 142.392 75.5804 141.912C75.5195 141.433 75.5352 140.941 75.6262 140.471C75.7173 140 75.8816 139.564 76.1076 139.191C76.3335 138.819 76.6156 138.519 76.934 138.314L76.0766 126.541L80.0047 129.393L80.2167 140.136C80.4296 140.901 80.4328 141.747 80.2258 142.515C80.0188 143.282 79.6159 143.918 79.0935 144.301C78.5711 144.685 77.9655 144.789 77.3914 144.594C76.8174 144.4 76.3147 143.92 75.9787 143.245H75.9787Z" fill="#FFB7B7"/>
<path d="M55.0157 215.626L57.822 215.626L59.1573 200.613H55.0152L55.0157 215.626Z" fill="#FFB7B7"/>
<path d="M54.2997 214.355L59.8267 214.355H59.8269C60.7611 214.355 61.6569 214.87 62.3175 215.786C62.978 216.702 63.3491 217.944 63.3492 219.24V219.398L54.2999 219.399L54.2997 214.355Z" fill="#2F2E41"/>
<path d="M69.1901 213.288L71.9344 214.104L75.5082 199.812L71.458 198.609L69.1901 213.288Z" fill="#FFB7B7"/>
<path d="M68.6821 211.838L74.0864 213.444L74.0867 213.444C75.0001 213.715 75.7983 214.479 76.3057 215.566C76.8132 216.654 76.9884 217.977 76.7927 219.243L76.7687 219.399L67.9202 216.769L68.6821 211.838Z" fill="#2F2E41"/>
<path d="M49.9555 129.712C49.9555 129.712 46.9697 142.51 49.8938 156.982L52.8701 174.318L53.6087 212.677L59.6356 209.994L62.091 151.485L73.4007 178.108L67.4482 209.994L74.2936 210.303L81.6856 175.82L75.1864 143.643L73.9959 135.801L49.9555 129.712Z" fill="#2F2E41"/>
<path d="M74.3566 87.211L68.3619 82.4722L57.9911 81.6409L50.7975 86.8785L53.7209 114.694C53.7209 114.694 48.1452 125.791 50.1781 133.186C52.6871 142.312 74.6269 147.073 74.1978 138.166C73.5206 124.111 72.4747 125.08 71.708 118.188C70.8666 110.626 76.7544 100.929 76.7544 100.929L74.3566 87.211Z" fill="#CBCBCB"/>
<path d="M53.0155 89.622L52.3473 85.6056C52.3473 85.6056 49.4965 86.1174 47.5209 93.7703C45.5452 101.423 42.0333 117.556 42.0333 117.556L42.2167 123.417C42.2167 123.417 40.8633 125.585 41.7971 126.576C42.7309 127.566 40.1103 128.909 41.4374 130.317C42.0201 130.936 42.4613 131.776 42.7081 132.734C42.9548 133.693 42.9965 134.73 42.8281 135.721L46.9045 133.975L46.6048 124.747L48.2198 117.473L52.536 99.2658L53.0155 89.622Z" fill="#CBCBCB"/>
<path d="M72.1616 90.3066L73.0696 86.4116C73.0696 86.4116 74.7419 85.4625 75.9763 90.8106C77.2107 96.1587 77.7966 109.692 77.7966 109.692L80.1945 125.825C80.1945 125.825 81.0905 127.879 80.6141 128.468C80.1377 129.057 82.7065 129.885 81.2136 130.976C79.7206 132.067 81.3423 130.741 80.7845 133.229C80.4181 134.862 80.7939 135.721 80.7939 135.721L76.178 134.433L74.9191 126.164L72.0636 110.789L72.1616 90.3066Z" fill="#CBCBCB"/>
<path d="M63.1991 78.1432C67.5959 78.1432 71.1601 73.2001 71.1601 67.1025C71.1601 61.0049 67.5959 56.0618 63.1991 56.0618C58.8023 56.0618 55.238 61.0049 55.238 67.1025C55.238 73.2001 58.8023 78.1432 63.1991 78.1432Z" fill="#2F2E41"/>
<path d="M62.3813 60.2316C60.6682 57.8224 58.5952 55.9632 56.3081 54.7851C54.84 54.0308 53.2421 53.5648 51.7073 53.9931C50.1724 54.4215 48.721 55.894 48.2928 57.9824C47.9426 59.6902 48.3042 61.5289 48.8476 63.1365C49.3909 64.744 50.1164 66.2348 50.5558 67.9023C51.0041 69.6038 51.139 71.4337 50.948 73.2258C50.7571 75.0179 50.2465 76.7155 49.4625 78.1645C48.6785 79.6135 47.646 80.768 46.4586 81.5232C45.2713 82.2784 43.9668 82.6104 42.6635 82.4891C44.1715 82.7695 45.5616 83.7523 47.0356 84.2754C48.5096 84.7986 50.2494 84.7631 51.3448 83.2986C52.5038 81.7491 52.527 79.2297 52.4709 76.9985C52.3876 73.6817 52.3043 70.3649 52.221 67.048C52.1785 65.3565 52.1423 63.6108 52.5822 62.032C53.022 60.4532 54.0673 59.0707 55.2877 59.0851C56.2127 59.096 57.0313 59.8731 57.773 60.6394C58.5148 61.4058 59.2999 62.2234 60.2212 62.3374C61.1425 62.4514 62.1944 61.5058 62.1255 60.2266L62.3813 60.2316Z" fill="#2F2E41"/>
<path d="M69.1421 75.0589C70.6945 71.1204 69.6508 66.1823 66.8109 64.0293C63.971 61.8763 60.4103 63.3238 58.8579 67.2623C57.3054 71.2008 58.3491 76.1389 61.189 78.2919C64.0289 80.4448 67.5896 78.9974 69.1421 75.0589Z" fill="#FFB7B7"/>
<path d="M72.2415 70.5461H63.7794L63.6926 68.8612L63.2588 70.5461H61.9558L61.7839 67.2067L60.9239 70.5461H58.4027V70.3806C58.4046 68.0558 59.0714 65.8269 60.2567 64.183C61.4421 62.5391 63.0492 61.6144 64.7256 61.6118H65.9186C67.595 61.6144 69.2021 62.5391 70.3875 64.183C71.5728 65.8269 72.2396 68.0558 72.2415 70.3806V70.5461Z" fill="#2F2E41"/>
<path d="M59.6811 76.6022L56.591 72.3121L56.0699 62.8153H62.8909L62.722 63.0491C60.3725 66.3034 57.8359 71.0789 59.6811 76.6022Z" fill="#2F2E41"/>
<path d="M100.375 220H0.262761C0.193073 220 0.126238 219.962 0.0769608 219.893C0.0276835 219.825 0 219.732 0 219.636C0 219.539 0.0276835 219.446 0.0769608 219.378C0.126238 219.31 0.193073 219.271 0.262761 219.271H100.375C100.445 219.271 100.511 219.31 100.561 219.378C100.61 219.446 100.638 219.539 100.638 219.636C100.638 219.732 100.61 219.825 100.561 219.893C100.511 219.962 100.445 220 100.375 220Z" fill="#CBCBCB"/>
</g>
<defs>
<clipPath id="clip0">
<rect width="246" height="220" fill="white"/>
</clipPath>
</defs>
</svg>
