<svg width="246" height="220" viewBox="0 0 246 220" fill="none" xmlns="http://www.w3.org/2000/svg">
<g clip-path="url(#clip0)">
<path d="M24.2986 203.863C24.4048 208.994 25.0687 214.08 26.2709 218.971C26.2975 219.085 26.3271 219.196 26.3559 219.31H33.7154C33.7076 219.208 33.6996 219.095 33.6919 218.971C33.2012 211.668 36.0045 167.749 39.3872 160.147C39.0908 160.764 23.728 180.658 24.2986 203.863Z" fill="#E6E6E6"/>
<path d="M24.8507 218.971C24.9123 219.085 24.9763 219.198 25.0418 219.31H30.5631C30.5213 219.213 30.4728 219.1 30.4165 218.971C29.5045 216.84 26.8049 210.469 24.299 203.863C21.6072 196.765 19.1354 189.398 19.3436 186.731C19.2791 187.333 17.4156 205.666 24.8507 218.971Z" fill="#E6E6E6"/>
<path d="M114.343 211.462C114.397 214.069 114.734 216.653 115.345 219.138C115.359 219.195 115.374 219.252 115.388 219.31H119.127C119.123 219.258 119.119 219.2 119.115 219.138C118.866 215.427 120.29 193.114 122.009 189.252C121.858 189.565 114.053 199.672 114.343 211.462Z" fill="#E6E6E6"/>
<path d="M114.624 219.138C114.655 219.195 114.687 219.253 114.721 219.31H117.526C117.505 219.261 117.48 219.203 117.451 219.138C116.988 218.055 115.616 214.818 114.343 211.462C112.976 207.856 111.72 204.113 111.826 202.758C111.793 203.063 110.846 212.378 114.624 219.138Z" fill="#E6E6E6"/>
<path d="M92.2071 62.8517L82.6896 71.6157L88.6117 72.4369L96.8606 63.4003L92.2071 62.8517Z" fill="#3F3D56"/>
<path d="M54.971 212.492L60.6954 212.492L63.4187 183.907L54.97 183.908L54.971 212.492Z" fill="#9F616A"/>
<path d="M53.5107 210.073L64.7842 210.072H64.7846C66.69 210.072 68.5172 211.052 69.8645 212.796C71.2118 214.54 71.9688 216.906 71.9689 219.373V219.675L53.5111 219.676L53.5107 210.073Z" fill="#2F2E41"/>
<path d="M51.372 110.394C51.372 110.394 48.8911 114.025 52.9991 128.177L52.2755 205.778L65.5883 205.442L68.5146 167.589L73.8425 112.35L51.372 110.394Z" fill="#2F2E41"/>
<path d="M38.0804 98.1443C37.2939 98.1415 36.5391 97.7421 35.9763 97.0307C35.4136 96.3193 35.0871 95.352 35.0661 94.3341L34.4414 63.8539L45.1313 37.5987C45.374 37.0075 45.7291 36.5062 46.1632 36.1421C46.5972 35.778 47.0958 35.5632 47.6118 35.5181L55.7584 34.8409L55.055 96.2808L38.3453 98.1296C38.2567 98.1396 38.1683 98.1444 38.0804 98.1443Z" fill="#024873"/>
<path d="M78.4084 121.123L78.2627 121.094C61.2319 117.732 48.3802 114.508 48.2524 114.476L48.0928 114.436L52.5572 100.378C52.522 98.909 51.5556 57.659 53.4056 45.8075C55.1965 34.3345 63.6383 32.4543 64.6003 32.2774L65.5662 28.134L77.7696 36.3549L79.8979 45.838L80.3303 71.8288L78.4084 121.123Z" fill="#3F3D56"/>
<path d="M61.638 81.7748C53.7756 81.7748 47.379 70.7077 47.379 57.1043C47.379 43.5009 53.7756 32.4338 61.638 32.4338C69.5004 32.4338 75.8969 43.5009 75.8969 57.1043C75.8969 70.7077 69.5004 81.7748 61.638 81.7748ZM61.638 34.8491C54.8043 34.8491 49.2447 44.8328 49.2447 57.1043C49.2447 69.3759 54.8043 79.3595 61.638 79.3595C68.4716 79.3595 74.0313 69.3759 74.0313 57.1043C74.0313 44.8328 68.4716 34.8491 61.638 34.8491Z" fill="#024873"/>
<path d="M85.7584 67.6282C85.2089 67.628 84.6652 67.7751 84.1617 68.0602C83.6583 68.3452 83.2058 68.7621 82.8328 69.2846H62.321L54.8076 71.3551L56.0412 83.6726L82.7684 76.2312C83.2109 76.8782 83.7715 77.3713 84.3991 77.6656C85.0267 77.9599 85.7012 78.0461 86.3611 77.9161C87.021 77.7861 87.6453 77.4443 88.1769 76.9216C88.7085 76.399 89.1305 75.7124 89.4044 74.9243C89.6782 74.1363 89.7953 73.272 89.7448 72.4103C89.6943 71.5486 89.4779 70.7171 89.1154 69.9915C88.7528 69.266 88.2556 68.6696 87.6692 68.2567C87.0828 67.8439 86.4259 67.6278 85.7584 67.6282Z" fill="#9F616A"/>
<path d="M84.2523 26.3886C88.1129 21.3907 88.1129 13.2875 84.2523 8.2896C80.3918 3.2917 74.1326 3.2917 70.272 8.28961C66.4115 13.2875 66.4115 21.3907 70.272 26.3886C74.1326 31.3865 80.3918 31.3865 84.2523 26.3886Z" fill="#9F616A"/>
<path d="M67.9646 7.10782L67.4853 5.85907L69.8968 4.30797C69.8968 4.30797 72.557 -1.29569 77.3707 0.279063C82.1845 1.85382 84.3503 2.79627 84.3503 2.79627L86.7556 4.36313L85.5484 5.91816L87.7141 6.86064L86.2673 7.79129L87.9507 9.04398L87.0445 15.4657C87.0445 15.4657 85.5393 10.5951 82.6456 12.4564C79.7518 14.3177 74.4588 11.4942 74.4588 11.4942L69.8603 23.0156C69.8603 23.0156 68.9116 18.9768 67.2202 20.0537C67.2202 20.0538 62.899 11.1446 67.9646 7.10782Z" fill="#2F2E41"/>
<path d="M153.861 85.8974L153.439 75.6381L149.174 71.1526L146.704 80.6528L132.887 104.51C132.234 104.646 131.624 105.021 131.13 105.591C130.636 106.16 130.279 106.902 130.1 107.726C129.922 108.551 129.929 109.425 130.122 110.244C130.315 111.063 130.685 111.794 131.189 112.349C131.692 112.905 132.308 113.262 132.964 113.379C133.619 113.495 134.287 113.366 134.887 113.007C135.488 112.648 135.996 112.073 136.353 111.352C136.709 110.63 136.898 109.791 136.898 108.935C136.898 108.874 136.893 108.816 136.891 108.756L153.861 85.8974Z" fill="#FFB7B7"/>
<path d="M162.073 215.198L158.806 215.198L157.251 198.881L162.073 198.882L162.073 215.198Z" fill="#FFB7B7"/>
<path d="M162.906 219.298L152.37 219.298V219.125C152.371 217.717 152.803 216.367 153.572 215.371C154.341 214.376 155.384 213.816 156.471 213.816H156.472L162.906 213.816L162.906 219.298Z" fill="#2F2E41"/>
<path d="M177.265 215.198L173.997 215.198L172.443 198.881L177.265 198.882L177.265 215.198Z" fill="#FFB7B7"/>
<path d="M178.098 219.298L167.562 219.298V219.125C167.562 217.717 167.994 216.367 168.763 215.371C169.532 214.376 170.576 213.816 171.663 213.816H171.663L178.098 213.816L178.098 219.298Z" fill="#2F2E41"/>
<path d="M173.811 43.0392C175.195 35.6445 176.367 27.3041 173.758 20.4935C171.947 15.768 165.251 14.1766 161.412 15.879C157.573 17.5815 154.798 22.2003 153.577 27.2362C152.356 32.2722 152.498 37.6988 153.03 42.934C160.09 42.7584 167.15 42.5828 173.811 43.0392Z" fill="#2F2E41"/>
<path d="M165.846 41.7311C169.836 38.9076 171.302 32.4317 169.121 27.2666C166.94 22.1016 161.938 20.2033 157.948 23.0268C153.958 25.8503 152.492 32.3263 154.673 37.4913C156.854 42.6564 161.856 44.5546 165.846 41.7311Z" fill="#FFB8B8"/>
<path d="M171.962 30.1834C171.988 28.3895 171.735 26.6072 171.219 24.9422C170.702 23.2773 169.933 21.7637 168.956 20.4914C167.978 19.2191 166.814 18.2141 165.531 17.5361C164.247 16.8581 162.872 16.5208 161.486 16.5445C160.101 16.5681 158.733 16.9522 157.464 17.6738C156.195 18.3953 155.051 19.4397 154.1 20.7449C153.149 22.0501 152.411 23.5894 151.928 25.2714C151.446 26.9534 151.23 28.7438 151.293 30.5361C158.339 30.5555 165.386 30.5748 171.962 30.1834Z" fill="#2F2E41"/>
<path d="M148.676 96.5926C148.676 96.5926 147.337 121.785 148.064 129.469C148.791 137.154 156.707 204.338 156.707 204.338L162.678 204.324L164.451 125.152L171.512 205.093L177.687 204.262L181.191 126.065C181.191 126.065 180.641 96.7896 176.176 93.854L148.676 96.5926Z" fill="#2F2E41"/>
<path d="M158.043 121.565C153.657 121.563 149.334 120.208 145.434 117.612L145.348 117.555L148.649 89.2025L148.435 55.4113C148.429 54.4838 148.566 53.5641 148.837 52.7059C149.109 51.8476 149.51 51.068 150.017 50.4125C150.524 49.757 151.126 49.2387 151.79 48.8879C152.453 48.5371 153.163 48.3608 153.88 48.3693L171.59 48.5797C172.374 48.5891 173.149 48.8072 173.865 49.2205C174.581 49.6339 175.224 50.2336 175.754 50.9824C176.283 51.7312 176.688 52.6131 176.943 53.5731C177.198 54.5332 177.297 55.5508 177.235 56.5629L175.578 83.6522L181.059 105.639L180.106 107.279C177.538 111.714 174.207 115.315 170.377 117.794C166.548 120.274 162.325 121.565 158.043 121.565Z" fill="#3F3D56"/>
<path d="M146.655 77.5217L148.511 53.0057L149.107 51.9069C149.516 51.1544 150.035 50.5137 150.636 50.0217C151.236 49.5296 151.906 49.196 152.606 49.0398C153.306 48.8836 154.023 48.908 154.716 49.1116C155.409 49.3151 156.064 49.6939 156.644 50.226L157.155 50.6956L156.65 75.5404L146.655 77.5217Z" fill="#3F3D56"/>
<path d="M222.7 197.297C227.498 195.581 229.546 205.013 224.76 206.784C219.962 208.499 217.915 199.067 222.7 197.297Z" fill="#3F3D56"/>
<path d="M196.1 209.436C200.897 207.721 202.945 217.153 198.159 218.923C193.362 220.639 191.314 211.207 196.1 209.436Z" fill="#3F3D56"/>
<path d="M185.334 109.958L185.408 109.931L197.766 153.366L199.395 152.773L186.949 109.027C186.922 108.353 186.717 107.711 186.37 107.208C186.022 106.704 185.552 106.37 185.037 106.261C178.857 104.995 176.352 112.098 176.352 112.098L176.377 112.145L189.011 156.552L190.641 155.959L178.378 112.859C182.111 108.078 185.334 109.958 185.334 109.958Z" fill="#3F3D56"/>
<path d="M199.497 211.88C197.734 211.86 196.021 211.112 194.61 209.744C193.198 208.377 192.16 206.461 191.647 204.277C189.289 194.283 183.724 170.337 182.987 163.839C182.027 155.377 187.436 152.971 187.557 152.92C187.702 152.856 189.877 152.068 192.888 150.977C198.005 149.124 205.737 146.322 206.022 146.156C207.22 145.617 208.491 145.404 209.756 145.53C211.021 145.657 212.252 146.12 213.372 146.891C214.526 147.677 215.545 148.759 216.366 150.071C217.187 151.383 217.794 152.897 218.149 154.522L226.109 191.183C226.6 193.431 226.462 195.831 225.72 197.959C224.978 200.088 223.679 201.809 222.052 202.819C215.91 206.639 206.902 211.735 199.618 211.879C199.578 211.879 199.537 211.88 199.497 211.88Z" fill="#024873"/>
<path d="M184.02 108.456L180.018 78.1966L179.572 67.9844L173.103 70.7275L178.559 110.35C178.339 111.121 178.286 111.956 178.408 112.763C178.529 113.57 178.82 114.318 179.248 114.926C179.676 115.533 180.224 115.977 180.834 116.208C181.443 116.439 182.09 116.448 182.703 116.236C183.317 116.023 183.873 115.596 184.312 115.001C184.75 114.407 185.054 113.667 185.19 112.864C185.326 112.061 185.289 111.225 185.082 110.448C184.876 109.67 184.508 108.981 184.02 108.456V108.456Z" fill="#FFB7B7"/>
<path d="M181.113 76.2987L171.016 75.5877L168.644 50.9247L168.875 50.6654C169.443 50.0269 170.104 49.5401 170.818 49.233C171.532 48.9258 172.286 48.8042 173.037 48.8753C173.788 48.9464 174.52 49.2087 175.192 49.6472C175.864 50.0857 176.463 50.6917 176.953 51.4304L177.42 52.1337L177.427 52.1781L181.113 76.2987Z" fill="#3F3D56"/>
<path d="M222.229 196.771L211.909 151.553L187.642 160.431L187.497 159.767L212.271 150.703L212.345 151.03L222.74 196.576L222.229 196.771Z" fill="#3F3D56"/>
<path d="M38.8507 94.9022L37.7518 63.8826L49.0076 35.3981L49.482 35.7124L38.291 64.0338L39.3832 94.8705L38.8507 94.9022Z" fill="#3F3D56"/>
<path d="M245.733 220H0.266522C0.195836 220 0.128045 219.964 0.0780623 219.899C0.0280797 219.834 0 219.746 0 219.655C0 219.563 0.0280797 219.476 0.0780623 219.411C0.128045 219.346 0.195836 219.31 0.266522 219.31H245.733C245.804 219.31 245.872 219.346 245.922 219.411C245.972 219.476 246 219.563 246 219.655C246 219.746 245.972 219.834 245.922 219.899C245.872 219.964 245.804 220 245.733 220Z" fill="#CCCCCC"/>
<path d="M56.1725 85.9816L53.8268 76.9486L53.2594 46.8373L54.2589 42.565C54.6186 41.0274 55.2144 39.5996 56.0106 38.3672C56.8068 37.1348 57.787 36.1231 58.8925 35.3929C59.9979 34.6627 61.2059 34.2289 62.4439 34.1176C63.682 34.0062 64.9246 34.2196 66.0974 34.7449C67.2703 35.2702 68.3491 36.0966 69.2693 37.1746C70.1895 38.2527 70.9321 39.5601 71.4526 41.0186C71.9732 42.4771 72.2609 44.0566 72.2986 45.6625C72.3363 47.2684 72.1231 48.8676 71.672 50.3644L66.315 68.136L66.5873 68.8202L78.1933 68.6986L82.3158 78.3055L56.1725 85.9816Z" fill="#3F3D56"/>
<path d="M130.107 150.263L130.099 150.265L117.235 153.599L106.17 159.368C106.027 159.443 105.874 159.48 105.719 159.478C105.565 159.476 105.413 159.435 105.271 159.357C105.129 159.278 105 159.165 104.892 159.022C104.784 158.88 104.699 158.711 104.642 158.526C104.628 158.482 104.616 158.438 104.606 158.393L96.5217 123.35C96.4367 122.987 96.4601 122.596 96.5873 122.254C96.7144 121.912 96.9361 121.645 97.2083 121.504L108.476 115.63L108.485 115.627L121.348 112.294L132.414 106.524C132.703 106.374 133.026 106.378 133.313 106.536C133.599 106.694 133.826 106.993 133.942 107.367C133.956 107.41 133.968 107.455 133.978 107.5L142.062 142.543C142.147 142.906 142.123 143.297 141.996 143.639C141.869 143.98 141.647 144.248 141.375 144.388L130.107 150.263Z" fill="#E5E5E5"/>
<path d="M116.304 126.724C113.354 125.376 110.305 124.196 107.242 123.215L107.088 123.166L108.643 129.906L116.565 126.844L116.304 126.724ZM108.765 129.615L107.352 123.492C110.267 124.431 113.168 125.552 115.981 126.825L108.765 129.615ZM131.761 135.836C130.388 134.83 128.995 133.868 127.582 132.948C127.193 132.694 126.802 132.444 126.41 132.197C124.018 130.69 121.59 129.317 119.124 128.077L119.096 128.062L109.109 131.924L111.836 143.746L131.946 135.971L131.761 135.836ZM111.957 143.455L109.334 132.081L119.088 128.309C121.465 129.506 123.815 130.832 126.138 132.286C126.541 132.539 126.943 132.795 127.343 133.055C128.742 133.962 130.124 134.911 131.487 135.904L111.957 143.455ZM131.761 135.836C130.388 134.83 128.995 133.868 127.582 132.948C127.193 132.694 126.802 132.444 126.41 132.197C124.018 130.69 121.59 129.317 119.124 128.077L119.096 128.062L109.109 131.924L111.836 143.746L131.946 135.971L131.761 135.836ZM111.957 143.455L109.334 132.081L119.088 128.309C121.465 129.506 123.815 130.832 126.138 132.286C126.541 132.539 126.943 132.795 127.343 133.055C128.742 133.962 130.124 134.911 131.487 135.904L111.957 143.455ZM116.304 126.724C113.354 125.376 110.305 124.196 107.242 123.215L107.088 123.166L108.643 129.906L116.565 126.844L116.304 126.724ZM108.765 129.615L107.352 123.492C110.267 124.431 113.168 125.552 115.981 126.825L108.765 129.615ZM116.304 126.724C113.354 125.376 110.305 124.196 107.242 123.215L107.088 123.166L108.643 129.906L116.565 126.844L116.304 126.724ZM108.765 129.615L107.352 123.492C110.267 124.431 113.168 125.552 115.981 126.825L108.765 129.615ZM131.761 135.836C130.388 134.83 128.995 133.868 127.582 132.948C127.193 132.694 126.802 132.444 126.41 132.197C124.018 130.69 121.59 129.317 119.124 128.077L119.096 128.062L109.109 131.924L111.836 143.746L131.946 135.971L131.761 135.836ZM111.957 143.455L109.334 132.081L119.088 128.309C121.465 129.506 123.815 130.832 126.138 132.286C126.541 132.539 126.943 132.795 127.343 133.055C128.742 133.962 130.124 134.911 131.487 135.904L111.957 143.455ZM103.733 149.076L103.784 149.3L110.622 146.657L111.371 149.906L104.534 152.55L104.586 152.774L111.596 150.064L110.743 146.366L103.733 149.076ZM113.62 151.478L114.144 153.749L114.312 153.662L113.845 151.636L140.505 141.328L140.453 141.104L113.62 151.478ZM139.187 135.613L139.135 135.389L112.301 145.763L113.154 149.461L139.988 139.087L139.936 138.862L113.276 149.17L112.526 145.92L139.187 135.613ZM119.258 125.558C115.172 123.526 110.974 121.89 106.7 120.664L106.177 118.395L106.008 118.483L106.536 120.77L106.713 120.908C110.97 122.132 115.152 123.764 119.222 125.791L119.251 125.805L135.477 119.532L135.425 119.308L119.258 125.558ZM106.86 130.352L100.023 132.995L100.075 133.219L107.085 130.509L104.493 119.272L104.325 119.36L106.86 130.352ZM135.943 121.549L121.678 127.064L121.91 127.19C124.098 128.382 126.28 129.7 128.457 131.143C128.766 131.348 129.075 131.556 129.384 131.766C130.92 132.811 132.445 133.914 133.957 135.074L134.125 135.128L138.67 133.371L138.618 133.147L134.084 134.9C132.588 133.75 131.077 132.656 129.553 131.617C129.248 131.409 128.943 131.204 128.637 131C126.507 129.584 124.365 128.284 122.212 127.102L135.994 121.773L135.943 121.549ZM105.051 154.791L105.103 155.015L111.94 152.372L112.46 154.626L112.629 154.539L112.062 152.081L105.051 154.791ZM100.54 135.236L100.592 135.461L107.429 132.817L110.053 144.191L103.216 146.835L103.267 147.059L110.278 144.348L107.551 132.526L100.54 135.236ZM116.304 126.724C113.354 125.376 110.305 124.196 107.242 123.215L107.088 123.166L108.643 129.906L116.565 126.844L116.304 126.724ZM108.765 129.615L107.352 123.492C110.267 124.431 113.168 125.552 115.981 126.825L108.765 129.615ZM131.761 135.836C130.388 134.83 128.995 133.868 127.582 132.948C127.193 132.694 126.802 132.444 126.41 132.197C124.018 130.69 121.59 129.317 119.124 128.077L119.096 128.062L109.109 131.924L111.836 143.746L131.946 135.971L131.761 135.836ZM111.957 143.455L109.334 132.081L119.088 128.309C121.465 129.506 123.815 130.832 126.138 132.286C126.541 132.539 126.943 132.795 127.343 133.055C128.742 133.962 130.124 134.911 131.487 135.904L111.957 143.455ZM116.304 126.724C113.354 125.376 110.305 124.196 107.242 123.215L107.088 123.166L108.643 129.906L116.565 126.844L116.304 126.724ZM108.765 129.615L107.352 123.492C110.267 124.431 113.168 125.552 115.981 126.825L108.765 129.615ZM131.761 135.836C130.388 134.83 128.995 133.868 127.582 132.948C127.193 132.694 126.802 132.444 126.41 132.197C124.018 130.69 121.59 129.317 119.124 128.077L119.096 128.062L109.109 131.924L111.836 143.746L131.946 135.971L131.761 135.836ZM111.957 143.455L109.334 132.081L119.088 128.309C121.465 129.506 123.815 130.832 126.138 132.286C126.541 132.539 126.943 132.795 127.343 133.055C128.742 133.962 130.124 134.911 131.487 135.904L111.957 143.455Z" fill="white"/>
<path d="M118.6 127.78C119.255 130.618 116.744 138.475 116.744 138.475C116.744 138.475 111.316 133.687 110.662 130.849C110.347 129.486 110.464 128.017 110.986 126.766C111.508 125.514 112.393 124.582 113.446 124.175C114.498 123.768 115.633 123.919 116.6 124.595C117.566 125.271 118.286 126.417 118.6 127.78H118.6Z" fill="#024873"/>
<path d="M116.394 128.389C116.501 128.854 116.5 129.349 116.389 129.813C116.279 130.276 116.065 130.687 115.775 130.993C115.484 131.299 115.13 131.486 114.757 131.532C114.384 131.577 114.009 131.478 113.68 131.248C113.35 131.018 113.081 130.666 112.906 130.237C112.73 129.809 112.657 129.322 112.696 128.84C112.734 128.358 112.882 127.901 113.121 127.527C113.36 127.154 113.679 126.88 114.038 126.742C114.276 126.649 114.526 126.619 114.773 126.652C115.021 126.684 115.261 126.78 115.48 126.933C115.699 127.086 115.892 127.294 116.049 127.543C116.206 127.793 116.323 128.081 116.394 128.389Z" fill="white"/>
<path d="M117.28 142.244C117.897 142.244 118.397 141.597 118.397 140.798C118.397 140 117.897 139.353 117.28 139.353C116.663 139.353 116.163 140 116.163 140.798C116.163 141.597 116.663 142.244 117.28 142.244Z" fill="#024873"/>
<path d="M129.465 121.79L121.704 124.791C121.695 124.794 121.685 124.797 121.675 124.799L123.447 115.149C123.457 115.089 123.48 115.034 123.512 114.989C123.545 114.944 123.586 114.911 123.631 114.893C123.677 114.876 123.725 114.874 123.771 114.889C123.817 114.903 123.86 114.933 123.894 114.976L127.632 119.547L127.811 119.766L129.465 121.79Z" fill="white"/>
<path opacity="0.2" d="M129.465 121.79L126.816 122.814L127.552 119.866L127.605 119.653L127.632 119.547L127.81 119.766L129.465 121.79Z" fill="black"/>
<path d="M133.787 120.119L127.074 122.714L127.811 119.766L127.864 119.553L128.823 115.71C128.842 115.65 128.87 115.595 128.906 115.55C128.942 115.505 128.985 115.47 129.033 115.448C129.08 115.426 129.13 115.416 129.18 115.421C129.23 115.425 129.279 115.443 129.323 115.474C129.335 115.483 129.346 115.493 129.357 115.504L133.787 120.119Z" fill="white"/>
</g>
<defs>
<clipPath id="clip0">
<rect width="246" height="220" fill="white"/>
</clipPath>
</defs>
</svg>
